<?xml version="1.0" encoding="utf-8"?>
<!-- Generator: Adobe Illustrator 16.0.4, SVG Export Plug-In . SVG Version: 6.00 Build 0)  -->
<!DOCTYPE svg PUBLIC "-//W3C//DTD SVG 1.1//EN" "http://www.w3.org/Graphics/SVG/1.1/DTD/svg11.dtd">
<svg version="1.1" id="Ebene_1" xmlns="http://www.w3.org/2000/svg" xmlns:xlink="http://www.w3.org/1999/xlink" x="0px" y="0px"
	 width="951.326px" height="381.628px" viewBox="0 0 951.326 381.628" enable-background="new 0 0 951.326 381.628"
	 xml:space="preserve">
<g>
	<path fill="#1D1D1B" d="M794.977,361.128v-172H512.777v172h-30.212v20.5h342.623v-20.5H794.977z M519.777,196.128h268.199v165
		H519.777V196.128z M818.188,374.628H489.565v-6.5h23.212h282.199h23.212V374.628z"/>
	<path fill="#1D1D1B" d="M529.785,351.121h248.184V206.136H529.785V351.121z M536.785,213.136h234.184v130.984H536.785V213.136z"/>
</g>
<rect x="74.034" y="34.142" fill="#1ABC9C" width="289" height="59"/>
<rect x="177.134" y="100.645" fill="#1ABC9C" width="185.9" height="60.985"/>
<rect x="177.134" y="169.963" fill="#1ABC9C" width="185.9" height="60.666"/>
<rect x="74.034" y="100.645" fill="#1ABC9C" width="92.133" height="129.984"/>
<rect x="546.023" y="220.808" fill="#1ABC9C" width="215.707" height="59"/>
<rect x="622.977" y="287.31" fill="#1ABC9C" width="138.754" height="49.986"/>
<rect x="894.227" y="271.812" fill="#1ABC9C" width="34.046" height="29.818"/>
<rect x="894.227" y="306.591" fill="#1ABC9C" width="34.046" height="29.818"/>
<rect x="546.023" y="287.31" fill="#1ABC9C" width="68.768" height="49.986"/>
<g>
	<path fill="#1D1D1B" d="M436.068,319.289V0H0v319.289h159.251v41.84h-56.796v20.5h232.158v-20.5h-56.796v-41.84H436.068z
		 M429.068,7v252.128H7V7H429.068z M7,312.289v-46.16h422.068v46.16H277.817H159.251H7z M327.613,368.128v6.5H109.455v-6.5h49.796
		h118.566H327.613z M270.817,361.128H166.251v-41.84h104.566V361.128z"/>
	<path fill="#1D1D1B" d="M417.414,19.187H19.653v230.395h397.761V19.187z M410.414,242.582H26.653V26.187h383.761V242.582z"/>
</g>
<path fill="#1D1D1B" d="M218.034,306.121c-9.276,0-16.822-7.547-16.822-16.822s7.546-16.822,16.822-16.822
	s16.822,7.547,16.822,16.822S227.31,306.121,218.034,306.121z M218.034,279.476c-5.416,0-9.822,4.406-9.822,9.822
	s4.406,9.822,9.822,9.822s9.822-4.406,9.822-9.822S223.45,279.476,218.034,279.476z"/>
<g>
	<path fill="#1D1D1B" d="M940.472,259.376H882.54v90.426h57.932V259.376z M933.472,342.802H889.54v-76.426h43.932V342.802z"/>
	<path fill="#1D1D1B" d="M871.686,245.832v135.797h79.641V245.832H871.686z M944.326,374.628h-65.641V252.832h65.641V374.628z"/>
	<path fill="#1D1D1B" d="M911.955,353.236c-4.903,0-8.892,3.989-8.892,8.893c0,4.902,3.988,8.891,8.892,8.891
		s8.892-3.988,8.892-8.891C920.847,357.225,916.858,353.236,911.955,353.236z M911.955,364.019c-1.043,0-1.892-0.848-1.892-1.891
		c0-1.044,0.849-1.893,1.892-1.893s1.892,0.849,1.892,1.893C913.847,363.171,912.998,364.019,911.955,364.019z"/>
</g>
</svg>
