<?xml version="1.0" encoding="utf-8"?>
<!-- Generator: Adobe Illustrator 16.0.4, SVG Export Plug-In . SVG Version: 6.00 Build 0)  -->
<!DOCTYPE svg PUBLIC "-//W3C//DTD SVG 1.1//EN" "http://www.w3.org/Graphics/SVG/1.1/DTD/svg11.dtd">
<svg version="1.1" id="Ebene_1" xmlns="http://www.w3.org/2000/svg" xmlns:xlink="http://www.w3.org/1999/xlink" x="0px" y="0px"
	 width="277px" height="277px" viewBox="0 0 277 277" enable-background="new 0 0 277 277" xml:space="preserve">
<g>
	<path d="M138.5,10c34.323,0,66.593,13.366,90.863,37.637S267,104.176,267,138.499c0,34.324-13.366,66.594-37.637,90.864
		S172.823,267,138.5,267c-34.324,0-66.593-13.366-90.863-37.637S10,172.823,10,138.499c0-34.323,13.366-66.592,37.637-90.862
		S104.177,10,138.5,10 M138.5,0C62.009,0,0,62.009,0,138.499C0,214.991,62.009,277,138.5,277S277,214.991,277,138.499
		C277,62.009,214.991,0,138.5,0L138.5,0z"/>
	<path d="M126.556,127.544l-44.671,77.491l68.558-57.449l44.672-77.493L126.556,127.544z M118.763,161.085l15.572-27.013l0,0
		l8.326,6.986L118.763,161.085z"/>
	<rect x="133.5" y="17.167" width="10" height="22.677"/>
	<rect x="171.121" y="23.801" transform="matrix(0.9397 0.342 -0.342 0.9397 22.6387 -58.1161)" width="9.999" height="22.677"/>
	<rect x="204.203" y="42.901" transform="matrix(0.766 0.6428 -0.6428 0.766 83.8102 -121.7845)" width="10" height="22.677"/>
	<rect x="228.758" y="72.165" transform="matrix(0.5 0.866 -0.866 0.5 189.1938 -160.6883)" width="10" height="22.677"/>
	<rect x="241.823" y="108.063" transform="matrix(0.1736 0.9848 -0.9848 0.1736 321.5518 -144.4057)" width="10" height="22.677"/>
	<rect x="235.485" y="152.602" transform="matrix(0.9848 0.1736 -0.1736 0.9848 31.1067 -40.4547)" width="22.676" height="10"/>
	<rect x="222.418" y="188.499" transform="matrix(0.8661 0.4999 -0.4999 0.8661 128.0493 -90.9479)" width="22.678" height="10"/>
	<rect x="197.863" y="217.762" transform="matrix(0.6428 0.766 -0.766 0.6428 245.3628 -80.6862)" width="22.678" height="10"/>
	<rect x="164.779" y="236.863" transform="matrix(0.3421 0.9397 -0.9397 0.3421 343.144 -6.3662)" width="22.679" height="9.999"/>
	<rect x="133.498" y="237.156" width="10" height="22.679"/>
	<rect x="95.877" y="230.522" transform="matrix(0.9397 0.342 -0.342 0.9397 88.7936 -19.9155)" width="10" height="22.679"/>
	<rect x="62.794" y="211.422" transform="matrix(0.7661 0.6427 -0.6427 0.7661 159.0373 8.5336)" width="10" height="22.679"/>
	<rect x="38.24" y="182.158" transform="matrix(0.5 0.866 -0.866 0.5 189.193 59.3013)" width="10" height="22.68"/>
	<rect x="25.175" y="146.261" transform="matrix(0.1736 0.9848 -0.9848 0.1736 180.1411 100.5182)" width="10" height="22.679"/>
	<rect x="18.835" y="114.399" transform="matrix(0.9848 0.1736 -0.1736 0.9848 21.1853 -3.4254)" width="22.679" height="10"/>
	<rect x="31.901" y="78.502" transform="matrix(0.866 0.5 -0.5 0.866 47.541 -10.4332)" width="22.679" height="10"/>
	<rect x="56.456" y="49.239" transform="matrix(0.6428 0.766 -0.766 0.6428 65.7617 -32.5596)" width="22.679" height="10"/>
	<rect x="89.539" y="30.139" transform="matrix(0.3421 0.9397 -0.9397 0.3421 99.3873 -71.6743)" width="22.679" height="10"/>
</g>
</svg>
