<?xml version="1.0" encoding="utf-8"?>
<!-- Generator: Adobe Illustrator 16.0.4, SVG Export Plug-In . SVG Version: 6.00 Build 0)  -->
<!DOCTYPE svg PUBLIC "-//W3C//DTD SVG 1.1//EN" "http://www.w3.org/Graphics/SVG/1.1/DTD/svg11.dtd">
<svg version="1.1" id="Ebene_1" xmlns="http://www.w3.org/2000/svg" xmlns:xlink="http://www.w3.org/1999/xlink" x="0px" y="0px"
	 width="487.672px" height="609.464px" viewBox="0 0 487.672 609.464" enable-background="new 0 0 487.672 609.464"
	 xml:space="preserve">
<rect x="39.772" y="488.968" opacity="0.7" fill="#1ABC9C" width="410.116" height="91.295"/>
<rect x="39.772" y="137.703" opacity="0.4" fill="#1ABC9C" width="198.062" height="148.181"/>
<rect x="39.772" y="53.854" fill="#1ABC9C" width="410.116" height="72.41"/>
<path d="M0,0v609.462h487.672V0H0z M480.672,7v23.402H7V7H480.672z M7,602.462V37.402h473.672v565.061H7L7,602.462z"/>
<path d="M19.56,26.715c-4.544,0-8.241-3.697-8.241-8.242c0-4.545,3.697-8.242,8.241-8.242c4.545,0,8.242,3.697,8.242,8.242
	C27.802,23.018,24.104,26.715,19.56,26.715z M19.56,15.23c-1.787,0-3.241,1.455-3.241,3.242c0,1.787,1.454,3.242,3.241,3.242
	c1.788,0,3.242-1.455,3.242-3.242C22.802,16.685,21.347,15.23,19.56,15.23z"/>
<path d="M38.408,26.715c-4.546,0-8.242-3.697-8.242-8.242c0-4.545,3.696-8.242,8.242-8.242c4.543,0,8.239,3.697,8.239,8.242
	C46.648,23.018,42.952,26.715,38.408,26.715z M38.408,15.23c-1.788,0-3.242,1.455-3.242,3.242c0,1.787,1.455,3.242,3.242,3.242
	c1.786,0,3.239-1.455,3.239-3.242C41.648,16.685,40.195,15.23,38.408,15.23z"/>
<path d="M57.255,26.715c-4.545,0-8.242-3.697-8.242-8.242c0-4.545,3.697-8.242,8.242-8.242c4.544,0,8.241,3.697,8.241,8.242
	C65.496,23.018,61.799,26.715,57.255,26.715z M57.255,15.23c-1.788,0-3.242,1.455-3.242,3.242c0,1.787,1.455,3.242,3.242,3.242
	s3.241-1.455,3.241-3.242C60.496,16.685,59.042,15.23,57.255,15.23z"/>
<path d="M39.772,299.893v174.86h410.116v-174.86H39.772z M235.668,387.324L46.772,465.39V309.257L235.668,387.324z M59.376,306.893
	h370.908L244.83,383.539L59.376,306.893z M244.831,391.11l185.453,76.644H59.377L244.831,391.11z M253.993,387.324l188.896-78.066
	V465.39L253.993,387.324z"/>
<rect x="56.253" y="154.43" width="163.865" height="7"/>
<rect x="56.253" y="181.068" width="163.865" height="7"/>
<rect x="56.253" y="207.707" width="133.98" height="7"/>
<rect x="133.351" y="80.572" width="222.96" height="20"/>
<rect x="56.253" y="234.347" width="163.865" height="7"/>
<rect x="56.253" y="260.985" width="134.163" height="7"/>
<rect x="251.828" y="137.703" opacity="0.4" fill="#1ABC9C" width="198.061" height="148.181"/>
<rect x="268.309" y="154.43" width="163.865" height="7"/>
<rect x="268.309" y="181.068" width="163.865" height="7"/>
<rect x="268.309" y="207.707" width="133.979" height="7"/>
<rect x="268.309" y="234.347" width="163.865" height="7"/>
<rect x="268.309" y="260.985" width="134.162" height="7"/>
<rect x="54.023" y="504.478" width="378.15" height="7"/>
<rect x="54.023" y="531.117" width="378.15" height="7"/>
<rect x="54.023" y="557.755" width="309.188" height="7"/>
</svg>
