<?xml version="1.0" encoding="utf-8"?>
<!-- Generator: Adobe Illustrator 16.0.4, SVG Export Plug-In . SVG Version: 6.00 Build 0)  -->
<!DOCTYPE svg PUBLIC "-//W3C//DTD SVG 1.1//EN" "http://www.w3.org/Graphics/SVG/1.1/DTD/svg11.dtd">
<svg version="1.1" id="Ebene_1" xmlns="http://www.w3.org/2000/svg" xmlns:xlink="http://www.w3.org/1999/xlink" x="0px" y="0px"
	 width="487.672px" height="609.464px" viewBox="0 0 487.672 609.464" enable-background="new 0 0 487.672 609.464"
	 xml:space="preserve">
<path d="M0,0v609.464h487.672V0H0z M480.672,7v23.402H7V7H480.672z M7,602.464V37.402h473.672v565.062H7z"/>
<path d="M19.56,26.715c-4.544,0-8.241-3.697-8.241-8.242s3.697-8.242,8.241-8.242c4.545,0,8.242,3.697,8.242,8.242
	S24.104,26.715,19.56,26.715z M19.56,15.23c-1.787,0-3.241,1.455-3.241,3.242s1.454,3.242,3.241,3.242
	c1.788,0,3.242-1.455,3.242-3.242S21.347,15.23,19.56,15.23z"/>
<path d="M38.408,26.715c-4.545,0-8.242-3.697-8.242-8.242s3.697-8.242,8.242-8.242c4.543,0,8.24,3.697,8.24,8.242
	S42.952,26.715,38.408,26.715z M38.408,15.23c-1.788,0-3.242,1.455-3.242,3.242s1.455,3.242,3.242,3.242
	c1.787,0,3.24-1.455,3.24-3.242S40.195,15.23,38.408,15.23z"/>
<path d="M57.255,26.715c-4.545,0-8.242-3.697-8.242-8.242s3.697-8.242,8.242-8.242c4.544,0,8.241,3.697,8.241,8.242
	S61.799,26.715,57.255,26.715z M57.255,15.23c-1.788,0-3.242,1.455-3.242,3.242s1.455,3.242,3.242,3.242
	c1.787,0,3.241-1.455,3.241-3.242S59.042,15.23,57.255,15.23z"/>
<rect x="2.493" y="2.482" fill="none" width="482.686" height="604.501"/>
<path d="M36.272,284.386v181.86h283.582v-181.86H36.272z M171.511,375.316L43.272,456.331v-162.03L171.511,375.316z M51.764,291.386
	h252.598l-126.299,79.79L51.764,291.386z M178.063,379.456l126.299,79.79H51.764L178.063,379.456z M184.616,375.316l128.238-81.016
	v162.03L184.616,375.316z"/>
<rect x="39.772" y="136.205" width="410.116" height="7"/>
<rect x="39.772" y="162.844" width="410.116" height="7"/>
<rect x="39.772" y="189.482" width="335.324" height="7"/>
<rect x="39.772" y="82.574" width="222.96" height="20"/>
<rect x="39.772" y="216.122" width="410.116" height="7"/>
<rect x="39.772" y="242.761" width="335.779" height="7"/>
<rect x="39.772" y="504.479" width="410.116" height="7"/>
<rect x="39.772" y="531.117" width="410.116" height="7"/>
<rect x="39.772" y="557.757" width="335.324" height="7"/>
</svg>
